# xmcd
#
# Track frame offsets:
#  150
#  27357
#  49031
#  73329
#  96281
#  114645
#  129398
#  147470
#  187070
#  202959
#  227141
#  255716
#  268061
#  281468
#  292736
#
# Disc length: 4213 seconds
#
# Revision: 0
# Processed by: cddbd v1.5.2PL0 Copyright (c) Steve Scherf et al.
# Submitted via: AltoMP3_Maker 3.0
#
DISCID=e910730f
DTITLE=Grupo Vida - The Lone Star Saloon
DYEAR=1900
DGENRE=
TTITLE0=Esa Mujer
TTITLE1=Wasted Days and Wasted Nights
TTITLE2=Because I Love You (Porque Te Quiero)
TTITLE3=Bubba Hyde
TTITLE4=Dime Como Vivere
TTITLE5=Te Juro
TTITLE6=Esta Noche Quiero Llorar
TTITLE7=Mi Charchina (Folsom Prison Blues)
TTITLE8=Pressure
TTITLE9=Vuelvo
TTITLE10=Help Me Hold On
TTITLE11=On The Road Again
TTITLE12=Muevelo
TTITLE13=Cuando Cuando
TTITLE14=You Don't Have To Call Me Darlin'
EXTD=
EXTT0=
EXTT1=
EXTT2=
EXTT3=
EXTT4=
EXTT5=
EXTT6=
EXTT7=
EXTT8=
EXTT9=
EXTT10=
EXTT11=
EXTT12=
EXTT13=
EXTT14=
PLAYORDER=
